<svg xmlns="http://www.w3.org/2000/svg" width="2437" height="766" viewBox="0 0 2437 766"><defs><linearGradient id="linear-gradient" x1=".172" x2=".835" y2="1" gradientUnits="objectBoundingBox"><stop offset="0" stop-color="#013b5f"/><stop offset="1" stop-color="#096ead"/></linearGradient><clipPath id="clip-Logo_2"><path d="M0 0h2437v766H0z"/></clipPath></defs><g id="Logo_2" data-name="Logo 2" clip-path="url(#clip-Logo_2)"><g id="Group_4" data-name="Group 4" transform="translate(-51.65)"><path id="Path_1" data-name="Path 1" d="M966.371 268.9h93.435L879.261 454.956 1051.578 626.3l-23.92-43.2 125.257-128.146-125.093-126.831 31.984-59.225 183.222 180.841-183.222 189.643h-89.481L789.65 454.956z" transform="translate(-631 -70.898)" fill="url(#linear-gradient)"/><path id="Path_18" data-name="Path 18" d="M.7-81.084A85.194 85.194 0 0 0 24-23.067 77.743 77.743 0 0 0 80.385 1.165c37.979 0 67.8-25.164 77.123-62.211h-23.067c-8.388 24.7-29.358 38.911-54.056 38.911A55.482 55.482 0 0 1 40.309-39.61a59.659 59.659 0 0 1-16.776-41.474 59.95 59.95 0 0 1 16.776-41.94A55.482 55.482 0 0 1 80.385-140.5c24 0 44.037 12.349 52.658 36.814h23.3c-9.32-36.814-38.678-60.114-75.958-60.114A78.661 78.661 0 0 0 24-139.567 85.475 85.475 0 0 0 .7-81.084zm303.831 17.009c0-40.309-28.193-65.706-64.541-65.706-36.115 0-64.541 25.4-64.541 65.706 0 40.542 27.494 66.172 63.609 66.172 36.348.003 65.473-25.63 65.473-66.172zm-107.413 0c0-32.154 20.271-47.3 42.639-47.3 21.9 0 43.105 15.145 43.105 47.3 0 32.387-21.669 47.532-43.8 47.532s-41.944-15.145-41.944-47.532zm127.451-.233c0 39.61 26.329 66.4 60.58 66.4 23.3 0 39.843-11.883 47.532-26.1V0h21.436v-172.42h-21.436v67.57c-8.854-14.679-27.261-24.931-47.3-24.931-34.481 0-60.812 25.63-60.812 65.473zm108.112.233c0 30.057-20.038 47.532-43.338 47.532s-43.105-17.708-43.105-47.765 19.805-47.066 43.105-47.066 43.338 17.708 43.338 47.299zM490 0h21.2v-127.684H490zm10.95-148.421a14.128 14.128 0 0 0 13.98-14.446 14.128 14.128 0 0 0-13.98-14.446 14.226 14.226 0 0 0-14.45 14.446 14.226 14.226 0 0 0 14.45 14.446zM640.75 0h20.97v-75.259c0-36.581-22.6-54.755-52.192-54.755-17.242 0-32.62 7.223-41.008 20.5v-18.174h-21.2V0h21.2v-70.6c0-27.494 14.912-41.008 36.581-41.008 21.436 0 35.649 13.281 35.649 39.377zm47.765-64.308c0 39.61 26.329 66.4 60.58 66.4 23.3 0 39.843-12.349 47.532-26.1V2.8c0 27.261-17.009 41.707-39.61 41.707-20.97 0-36.115-10.485-40.775-25.863h-20.97c4.194 27.261 28.193 44.27 61.745 44.27 37.513 0 61.046-24.931 61.046-60.114v-130.48h-21.436v23.3c-7.456-13.747-24.232-25.4-47.532-25.4-34.251-.001-60.58 25.629-60.58 65.472zm108.112.233c0 30.057-20.038 47.532-43.338 47.532s-43.1-17.708-43.1-47.765 19.8-47.066 43.1-47.066 43.338 17.708 43.338 47.299zM934.1-71.531 993.512 0h30.523l-51.493-61.279c27.96-4.893 42.173-26.795 42.173-49.862 0-25.863-17.708-51.959-53.124-51.959h-59.415V0h23.3v-139.334h36.115c19.8 0 29.591 14.213 29.591 28.193 0 14.213-9.786 28.426-29.591 28.426H934.1zm226.01 7.456c0-40.309-28.193-65.706-64.541-65.706-36.115 0-64.541 25.4-64.541 65.706 0 40.542 27.494 66.172 63.609 66.172 36.345.003 65.47-25.63 65.47-66.172zm-107.413 0c0-32.154 20.271-47.3 42.639-47.3 21.9 0 43.1 15.145 43.1 47.3 0 32.387-21.669 47.532-43.8 47.532s-41.942-15.145-41.942-47.532zm256.533 0c0-40.309-28.193-65.706-64.541-65.706-36.115 0-64.541 25.4-64.541 65.706 0 40.542 27.494 66.172 63.609 66.172 36.343.003 65.47-25.63 65.47-66.172zm-107.413 0c0-32.154 20.271-47.3 42.639-47.3 21.9 0 43.1 15.145 43.1 47.3 0 32.387-21.669 47.532-43.8 47.532s-41.942-15.145-41.942-47.532zM1521.49 0h20.97v-75.259c0-36.581-22.6-54.755-51.726-54.755-19.572 0-37.746 10.019-45.2 28.426-8.388-19.106-25.863-28.426-46.833-28.426-16.776 0-31.921 7.223-40.309 20.737v-18.407h-21.2V0h21.2v-70.366c0-27.494 14.679-41.241 36.115-41.241 20.97 0 34.95 13.281 34.95 39.377V0h20.97v-70.366c0-27.494 14.679-41.241 36.115-41.241 20.97 0 34.95 13.281 34.95 39.377zm147.489-34.717c-.932-45.668-75.026-29.125-75.026-59.415 0-10.252 9.32-17.708 24.931-17.708 17.009 0 26.8 9.32 27.727 22.135h21.2c-1.4-24.931-20.038-40.076-48.231-40.076-28.426 0-46.833 16.077-46.833 35.649 0 47.532 75.492 30.989 75.492 59.415 0 10.485-9.32 18.873-26.1 18.873-17.941 0-28.892-9.32-30.057-21.669h-21.9c1.4 23.3 22.368 39.61 52.192 39.61 28.198.003 46.605-15.844 46.605-36.814z" transform="translate(701 465)" fill="#084c77"/></g></g></svg>